<svg xmlns="http://www.w3.org/2000/svg" viewBox="0 0 800 260" role="img" aria-labelledby="t d"><title id="t">GKOS provisional logo</title><desc id="d">Shield containing a governed institution and connected knowledge nodes.</desc><defs><linearGradient id="g" x1="0" y1="0" x2="1" y2="1"><stop stop-color="#1d70a2"/><stop offset="1" stop-color="#07263f"/></linearGradient></defs><path d="M120 20 220 55v70c0 65-40 100-100 125C60 225 20 190 20 125V55Z" fill="url(#g)" stroke="#83c9f4" stroke-width="8"/><path d="M62 105h116M75 94l45-35 45 35M82 105v48m25-48v48m26-48v48m25-48v48M68 155h104" fill="none" stroke="white" stroke-width="8"/><circle cx="120" cy="183" r="8" fill="white"/><circle cx="78" cy="205" r="8" fill="white"/><circle cx="162" cy="205" r="8" fill="white"/><path d="m120 183-42 22m42-22 42 22" stroke="white" stroke-width="5"/><text x="255" y="115" font-family="Arial,Helvetica,sans-serif" font-size="92" font-weight="700" fill="#09243b">GKOS</text><text x="260" y="162" font-family="Arial,Helvetica,sans-serif" font-size="25" font-weight="700" fill="#09243b">GOVERNED KNOWLEDGE OPERATIONS STANDARD</text><text x="260" y="205" font-family="Arial,Helvetica,sans-serif" font-size="25" font-style="italic" fill="#1d70a2">How knowledge becomes trustworthy</text></svg>
